<mxfile host="Electron" agent="Mozilla/5.0 (Macintosh; Intel Mac OS X 10_15_7) AppleWebKit/537.36 (KHTML, like Gecko) draw.io/24.7.17 Chrome/128.0.6613.36 Electron/32.0.1 Safari/537.36" version="24.7.17">
  <diagram name="Page-1" id="hS4I89rfNqJYn6r8r8l5">
    <mxGraphModel dx="1584" dy="1025" grid="1" gridSize="10" guides="1" tooltips="1" connect="1" arrows="1" fold="1" page="1" pageScale="1" pageWidth="1654" pageHeight="1169" math="0" shadow="0">
      <root>
        <mxCell id="0" />
        <mxCell id="1" parent="0" />
        <mxCell id="uFk2t-kUWAG2hNGYg0_t-2" value="VPC" style="points=[[0,0],[0.25,0],[0.5,0],[0.75,0],[1,0],[1,0.25],[1,0.5],[1,0.75],[1,1],[0.75,1],[0.5,1],[0.25,1],[0,1],[0,0.75],[0,0.5],[0,0.25]];outlineConnect=0;gradientColor=none;html=1;whiteSpace=wrap;fontSize=12;fontStyle=0;container=1;pointerEvents=0;collapsible=0;recursiveResize=0;shape=mxgraph.aws4.group;grIcon=mxgraph.aws4.group_vpc2;strokeColor=#00FF00;fillColor=none;verticalAlign=top;align=left;spacingLeft=30;fontColor=#AAB7B8;dashed=0;strokeWidth=4;" vertex="1" parent="1">
          <mxGeometry x="120" y="320" width="1120" height="720" as="geometry" />
        </mxCell>
        <mxCell id="uFk2t-kUWAG2hNGYg0_t-3" value="Availability Zone A" style="fillColor=none;strokeColor=#FFFF33;dashed=1;verticalAlign=top;fontStyle=0;fontColor=#147EBA;whiteSpace=wrap;html=1;strokeWidth=3;fontSize=15;" vertex="1" parent="uFk2t-kUWAG2hNGYg0_t-2">
          <mxGeometry x="40" y="40" width="400" height="640" as="geometry" />
        </mxCell>
        <mxCell id="uFk2t-kUWAG2hNGYg0_t-41" style="edgeStyle=orthogonalEdgeStyle;rounded=0;orthogonalLoop=1;jettySize=auto;html=1;strokeWidth=4;" edge="1" parent="uFk2t-kUWAG2hNGYg0_t-2" source="uFk2t-kUWAG2hNGYg0_t-7" target="uFk2t-kUWAG2hNGYg0_t-31">
          <mxGeometry relative="1" as="geometry" />
        </mxCell>
        <mxCell id="uFk2t-kUWAG2hNGYg0_t-7" value="Public subnet A" style="points=[[0,0],[0.25,0],[0.5,0],[0.75,0],[1,0],[1,0.25],[1,0.5],[1,0.75],[1,1],[0.75,1],[0.5,1],[0.25,1],[0,1],[0,0.75],[0,0.5],[0,0.25]];outlineConnect=0;gradientColor=none;html=1;whiteSpace=wrap;fontSize=14;fontStyle=1;container=1;pointerEvents=0;collapsible=0;recursiveResize=0;shape=mxgraph.aws4.group;grIcon=mxgraph.aws4.group_security_group;grStroke=0;strokeColor=#7AA116;fillColor=#602ba1;verticalAlign=top;align=left;spacingLeft=30;fontColor=#3FF023;dashed=0;opacity=50;" vertex="1" parent="uFk2t-kUWAG2hNGYg0_t-2">
          <mxGeometry x="80" y="80" width="320" height="160" as="geometry" />
        </mxCell>
        <mxCell id="uFk2t-kUWAG2hNGYg0_t-9" value="Availability Zone B" style="fillColor=none;strokeColor=#FFFF33;dashed=1;verticalAlign=top;fontStyle=0;fontColor=#147EBA;whiteSpace=wrap;html=1;strokeWidth=3;fontSize=15;" vertex="1" parent="uFk2t-kUWAG2hNGYg0_t-2">
          <mxGeometry x="680" y="40" width="400" height="640" as="geometry" />
        </mxCell>
        <mxCell id="uFk2t-kUWAG2hNGYg0_t-48" style="edgeStyle=orthogonalEdgeStyle;rounded=0;orthogonalLoop=1;jettySize=auto;html=1;strokeWidth=4;" edge="1" parent="uFk2t-kUWAG2hNGYg0_t-2" source="uFk2t-kUWAG2hNGYg0_t-12" target="uFk2t-kUWAG2hNGYg0_t-32">
          <mxGeometry relative="1" as="geometry" />
        </mxCell>
        <mxCell id="uFk2t-kUWAG2hNGYg0_t-12" value="Private subnet A" style="points=[[0,0],[0.25,0],[0.5,0],[0.75,0],[1,0],[1,0.25],[1,0.5],[1,0.75],[1,1],[0.75,1],[0.5,1],[0.25,1],[0,1],[0,0.75],[0,0.5],[0,0.25]];outlineConnect=0;gradientColor=none;html=1;whiteSpace=wrap;fontSize=14;fontStyle=1;container=1;pointerEvents=0;collapsible=0;recursiveResize=0;shape=mxgraph.aws4.group;grIcon=mxgraph.aws4.group_security_group;grStroke=0;strokeColor=#000033;fillColor=#00FF80;verticalAlign=top;align=left;spacingLeft=30;fontColor=#db8d1f;dashed=0;opacity=50;" vertex="1" parent="uFk2t-kUWAG2hNGYg0_t-2">
          <mxGeometry x="80" y="280" width="320" height="160" as="geometry" />
        </mxCell>
        <mxCell id="uFk2t-kUWAG2hNGYg0_t-20" value="&lt;p class=&quot;p1&quot; style=&quot;margin: 0px; font-variant-numeric: normal; font-variant-east-asian: normal; font-variant-alternates: normal; font-size-adjust: none; font-kerning: auto; font-optical-sizing: auto; font-feature-settings: normal; font-variation-settings: normal; font-variant-position: normal; font-weight: 400; font-stretch: normal; font-size: 19px; line-height: normal; font-family: &amp;quot;Andale Mono&amp;quot;; color: rgb(47, 255, 18); background-color: rgba(37, 8, 25, 0.65); text-align: start; text-wrap: wrap;&quot;&gt;&lt;span class=&quot;s1&quot; style=&quot;font-variant-ligatures: no-common-ligatures; font-size: 19px;&quot;&gt;172.31.1.128/25&lt;/span&gt;&lt;/p&gt;" style="text;strokeColor=none;fillColor=none;html=1;fontSize=19;fontStyle=1;verticalAlign=middle;align=center;" vertex="1" parent="uFk2t-kUWAG2hNGYg0_t-12">
          <mxGeometry x="790" y="131" width="150" height="20" as="geometry" />
        </mxCell>
        <mxCell id="uFk2t-kUWAG2hNGYg0_t-49" style="edgeStyle=orthogonalEdgeStyle;rounded=0;orthogonalLoop=1;jettySize=auto;html=1;strokeWidth=4;" edge="1" parent="uFk2t-kUWAG2hNGYg0_t-2" source="uFk2t-kUWAG2hNGYg0_t-15" target="uFk2t-kUWAG2hNGYg0_t-33">
          <mxGeometry relative="1" as="geometry" />
        </mxCell>
        <mxCell id="uFk2t-kUWAG2hNGYg0_t-15" value="Inner subnet A" style="points=[[0,0],[0.25,0],[0.5,0],[0.75,0],[1,0],[1,0.25],[1,0.5],[1,0.75],[1,1],[0.75,1],[0.5,1],[0.25,1],[0,1],[0,0.75],[0,0.5],[0,0.25]];outlineConnect=0;gradientColor=none;html=1;whiteSpace=wrap;fontSize=14;fontStyle=1;container=1;pointerEvents=0;collapsible=0;recursiveResize=0;shape=mxgraph.aws4.group;grIcon=mxgraph.aws4.group_security_group;grStroke=0;strokeColor=#00A4A6;fillColor=#FFFF66;verticalAlign=top;align=left;spacingLeft=30;fontColor=#0000CC;dashed=0;opacity=50;" vertex="1" parent="uFk2t-kUWAG2hNGYg0_t-2">
          <mxGeometry x="80" y="480" width="320" height="160" as="geometry" />
        </mxCell>
        <mxCell id="uFk2t-kUWAG2hNGYg0_t-19" value="&lt;p class=&quot;p1&quot; style=&quot;margin: 0px; font-variant-numeric: normal; font-variant-east-asian: normal; font-variant-alternates: normal; font-size-adjust: none; font-kerning: auto; font-optical-sizing: auto; font-feature-settings: normal; font-variation-settings: normal; font-variant-position: normal; font-weight: 400; font-stretch: normal; font-size: 19px; line-height: normal; font-family: &amp;quot;Andale Mono&amp;quot;; color: rgb(47, 255, 18); background-color: rgba(37, 8, 25, 0.65); text-align: start; text-wrap: wrap;&quot;&gt;&lt;span class=&quot;s1&quot; style=&quot;font-variant-ligatures: no-common-ligatures; font-size: 19px;&quot;&gt;172.31.0.0/25&lt;/span&gt;&lt;/p&gt;" style="text;strokeColor=none;fillColor=none;html=1;fontSize=19;fontStyle=1;verticalAlign=middle;align=center;" vertex="1" parent="uFk2t-kUWAG2hNGYg0_t-15">
          <mxGeometry x="10" y="130" width="150" height="20" as="geometry" />
        </mxCell>
        <mxCell id="uFk2t-kUWAG2hNGYg0_t-21" value="&lt;p class=&quot;p1&quot; style=&quot;margin: 0px; font-variant-numeric: normal; font-variant-east-asian: normal; font-variant-alternates: normal; font-size-adjust: none; font-kerning: auto; font-optical-sizing: auto; font-feature-settings: normal; font-variation-settings: normal; font-variant-position: normal; font-weight: 400; font-stretch: normal; font-size: 19px; line-height: normal; font-family: &amp;quot;Andale Mono&amp;quot;; color: rgb(47, 255, 18); background-color: rgba(37, 8, 25, 0.65); text-align: start; text-wrap: wrap;&quot;&gt;&lt;span class=&quot;s1&quot; style=&quot;font-variant-ligatures: no-common-ligatures; font-size: 19px;&quot;&gt;172.31.0.128/25&lt;/span&gt;&lt;/p&gt;" style="text;strokeColor=none;fillColor=none;html=1;fontSize=19;fontStyle=1;verticalAlign=middle;align=center;" vertex="1" parent="uFk2t-kUWAG2hNGYg0_t-15">
          <mxGeometry x="790" y="130" width="150" height="20" as="geometry" />
        </mxCell>
        <mxCell id="uFk2t-kUWAG2hNGYg0_t-16" value="&lt;p class=&quot;p1&quot; style=&quot;margin: 0px; font-variant-numeric: normal; font-variant-east-asian: normal; font-variant-alternates: normal; font-size-adjust: none; font-kerning: auto; font-optical-sizing: auto; font-feature-settings: normal; font-variation-settings: normal; font-variant-position: normal; font-weight: 400; font-stretch: normal; font-size: 19px; line-height: normal; font-family: &amp;quot;Andale Mono&amp;quot;; color: rgb(47, 255, 18); background-color: rgba(37, 8, 25, 0.65); text-align: start; text-wrap: wrap;&quot;&gt;&lt;span class=&quot;s1&quot; style=&quot;font-variant-ligatures: no-common-ligatures; font-size: 19px;&quot;&gt;172.31.2.0/25&lt;/span&gt;&lt;/p&gt;" style="text;strokeColor=none;fillColor=none;html=1;fontSize=19;fontStyle=1;verticalAlign=middle;align=center;" vertex="1" parent="uFk2t-kUWAG2hNGYg0_t-2">
          <mxGeometry x="90" y="210" width="150" height="20" as="geometry" />
        </mxCell>
        <mxCell id="uFk2t-kUWAG2hNGYg0_t-18" value="&lt;p class=&quot;p1&quot; style=&quot;margin: 0px; font-variant-numeric: normal; font-variant-east-asian: normal; font-variant-alternates: normal; font-size-adjust: none; font-kerning: auto; font-optical-sizing: auto; font-feature-settings: normal; font-variation-settings: normal; font-variant-position: normal; font-weight: 400; font-stretch: normal; font-size: 19px; line-height: normal; font-family: &amp;quot;Andale Mono&amp;quot;; color: rgb(47, 255, 18); background-color: rgba(37, 8, 25, 0.65); text-align: start; text-wrap: wrap;&quot;&gt;&lt;span class=&quot;s1&quot; style=&quot;font-variant-ligatures: no-common-ligatures; font-size: 19px;&quot;&gt;172.31.1.0/25&lt;/span&gt;&lt;/p&gt;" style="text;strokeColor=none;fillColor=none;html=1;fontSize=19;fontStyle=1;verticalAlign=middle;align=center;" vertex="1" parent="uFk2t-kUWAG2hNGYg0_t-2">
          <mxGeometry x="90" y="410" width="150" height="20" as="geometry" />
        </mxCell>
        <mxCell id="uFk2t-kUWAG2hNGYg0_t-40" style="edgeStyle=orthogonalEdgeStyle;rounded=0;orthogonalLoop=1;jettySize=auto;html=1;strokeWidth=4;" edge="1" parent="uFk2t-kUWAG2hNGYg0_t-2" source="uFk2t-kUWAG2hNGYg0_t-22" target="uFk2t-kUWAG2hNGYg0_t-31">
          <mxGeometry relative="1" as="geometry" />
        </mxCell>
        <mxCell id="uFk2t-kUWAG2hNGYg0_t-22" value="Public subnet A" style="points=[[0,0],[0.25,0],[0.5,0],[0.75,0],[1,0],[1,0.25],[1,0.5],[1,0.75],[1,1],[0.75,1],[0.5,1],[0.25,1],[0,1],[0,0.75],[0,0.5],[0,0.25]];outlineConnect=0;gradientColor=none;html=1;whiteSpace=wrap;fontSize=14;fontStyle=1;container=1;pointerEvents=0;collapsible=0;recursiveResize=0;shape=mxgraph.aws4.group;grIcon=mxgraph.aws4.group_security_group;grStroke=0;strokeColor=#7AA116;fillColor=#602ba1;verticalAlign=top;align=left;spacingLeft=30;fontColor=#3FF023;dashed=0;opacity=50;" vertex="1" parent="uFk2t-kUWAG2hNGYg0_t-2">
          <mxGeometry x="720" y="80" width="320" height="160" as="geometry" />
        </mxCell>
        <mxCell id="uFk2t-kUWAG2hNGYg0_t-56" value="&lt;p class=&quot;p1&quot; style=&quot;margin: 0px; font-variant-numeric: normal; font-variant-east-asian: normal; font-variant-alternates: normal; font-size-adjust: none; font-kerning: auto; font-optical-sizing: auto; font-feature-settings: normal; font-variation-settings: normal; font-variant-position: normal; font-weight: 400; font-stretch: normal; font-size: 19px; line-height: normal; font-family: &amp;quot;Andale Mono&amp;quot;; color: rgb(47, 255, 18); background-color: rgba(37, 8, 25, 0.65); text-align: start; text-wrap: wrap;&quot;&gt;&lt;span class=&quot;s1&quot; style=&quot;font-variant-ligatures: no-common-ligatures; font-size: 19px;&quot;&gt;172.31.2.128/25&lt;/span&gt;&lt;/p&gt;" style="text;strokeColor=none;fillColor=none;html=1;fontSize=19;fontStyle=1;verticalAlign=middle;align=center;" vertex="1" parent="uFk2t-kUWAG2hNGYg0_t-22">
          <mxGeometry x="150" y="130" width="150" height="20" as="geometry" />
        </mxCell>
        <mxCell id="uFk2t-kUWAG2hNGYg0_t-47" style="edgeStyle=orthogonalEdgeStyle;rounded=0;orthogonalLoop=1;jettySize=auto;html=1;strokeWidth=4;" edge="1" parent="uFk2t-kUWAG2hNGYg0_t-2" source="uFk2t-kUWAG2hNGYg0_t-24" target="uFk2t-kUWAG2hNGYg0_t-32">
          <mxGeometry relative="1" as="geometry" />
        </mxCell>
        <mxCell id="uFk2t-kUWAG2hNGYg0_t-24" value="Private subnet A" style="points=[[0,0],[0.25,0],[0.5,0],[0.75,0],[1,0],[1,0.25],[1,0.5],[1,0.75],[1,1],[0.75,1],[0.5,1],[0.25,1],[0,1],[0,0.75],[0,0.5],[0,0.25]];outlineConnect=0;gradientColor=none;html=1;whiteSpace=wrap;fontSize=14;fontStyle=1;container=1;pointerEvents=0;collapsible=0;recursiveResize=0;shape=mxgraph.aws4.group;grIcon=mxgraph.aws4.group_security_group;grStroke=0;strokeColor=#000033;fillColor=#00FF80;verticalAlign=top;align=left;spacingLeft=30;fontColor=#db8d1f;dashed=0;opacity=50;" vertex="1" parent="uFk2t-kUWAG2hNGYg0_t-2">
          <mxGeometry x="720" y="280" width="320" height="160" as="geometry" />
        </mxCell>
        <mxCell id="uFk2t-kUWAG2hNGYg0_t-50" style="edgeStyle=orthogonalEdgeStyle;rounded=0;orthogonalLoop=1;jettySize=auto;html=1;strokeWidth=4;" edge="1" parent="uFk2t-kUWAG2hNGYg0_t-2" source="uFk2t-kUWAG2hNGYg0_t-26" target="uFk2t-kUWAG2hNGYg0_t-33">
          <mxGeometry relative="1" as="geometry" />
        </mxCell>
        <mxCell id="uFk2t-kUWAG2hNGYg0_t-26" value="Inner subnet A" style="points=[[0,0],[0.25,0],[0.5,0],[0.75,0],[1,0],[1,0.25],[1,0.5],[1,0.75],[1,1],[0.75,1],[0.5,1],[0.25,1],[0,1],[0,0.75],[0,0.5],[0,0.25]];outlineConnect=0;gradientColor=none;html=1;whiteSpace=wrap;fontSize=14;fontStyle=1;container=1;pointerEvents=0;collapsible=0;recursiveResize=0;shape=mxgraph.aws4.group;grIcon=mxgraph.aws4.group_security_group;grStroke=0;strokeColor=#00A4A6;fillColor=#FFFF66;verticalAlign=top;align=left;spacingLeft=30;fontColor=#0000CC;dashed=0;opacity=50;" vertex="1" parent="uFk2t-kUWAG2hNGYg0_t-2">
          <mxGeometry x="720" y="480" width="320" height="160" as="geometry" />
        </mxCell>
        <mxCell id="uFk2t-kUWAG2hNGYg0_t-30" value="IGW" style="sketch=0;outlineConnect=0;fontColor=#33FF33;gradientColor=none;fillColor=#8C4FFF;strokeColor=none;dashed=0;verticalLabelPosition=bottom;verticalAlign=top;align=left;html=1;fontSize=14;fontStyle=1;aspect=fixed;pointerEvents=1;shape=mxgraph.aws4.internet_gateway;" vertex="1" parent="uFk2t-kUWAG2hNGYg0_t-2">
          <mxGeometry x="521" y="2" width="78" height="78" as="geometry" />
        </mxCell>
        <mxCell id="uFk2t-kUWAG2hNGYg0_t-37" value="" style="edgeStyle=orthogonalEdgeStyle;rounded=0;orthogonalLoop=1;jettySize=auto;html=1;strokeWidth=4;" edge="1" parent="uFk2t-kUWAG2hNGYg0_t-2" source="uFk2t-kUWAG2hNGYg0_t-31" target="uFk2t-kUWAG2hNGYg0_t-30">
          <mxGeometry relative="1" as="geometry" />
        </mxCell>
        <mxCell id="uFk2t-kUWAG2hNGYg0_t-31" value="" style="sketch=0;outlineConnect=0;fontColor=#232F3E;gradientColor=none;fillColor=#8C4FFF;strokeColor=none;dashed=0;verticalLabelPosition=bottom;verticalAlign=top;align=center;html=1;fontSize=12;fontStyle=0;aspect=fixed;pointerEvents=1;shape=mxgraph.aws4.customer_gateway;" vertex="1" parent="uFk2t-kUWAG2hNGYg0_t-2">
          <mxGeometry x="521" y="121" width="78" height="78" as="geometry" />
        </mxCell>
        <mxCell id="uFk2t-kUWAG2hNGYg0_t-45" style="rounded=0;orthogonalLoop=1;jettySize=auto;html=1;strokeWidth=4;" edge="1" parent="uFk2t-kUWAG2hNGYg0_t-2" source="uFk2t-kUWAG2hNGYg0_t-29" target="uFk2t-kUWAG2hNGYg0_t-30">
          <mxGeometry relative="1" as="geometry" />
        </mxCell>
        <mxCell id="uFk2t-kUWAG2hNGYg0_t-29" value="NAT GW" style="sketch=0;outlineConnect=0;fontColor=#00FF00;gradientColor=none;fillColor=#8C4FFF;strokeColor=none;dashed=0;verticalLabelPosition=bottom;verticalAlign=top;align=center;html=1;fontSize=15;fontStyle=0;aspect=fixed;pointerEvents=1;shape=mxgraph.aws4.nat_gateway;" vertex="1" parent="uFk2t-kUWAG2hNGYg0_t-2">
          <mxGeometry x="280" y="110" width="78" height="78" as="geometry" />
        </mxCell>
        <mxCell id="uFk2t-kUWAG2hNGYg0_t-46" style="rounded=0;orthogonalLoop=1;jettySize=auto;html=1;strokeWidth=4;" edge="1" parent="uFk2t-kUWAG2hNGYg0_t-2" source="uFk2t-kUWAG2hNGYg0_t-32" target="uFk2t-kUWAG2hNGYg0_t-29">
          <mxGeometry relative="1" as="geometry" />
        </mxCell>
        <mxCell id="uFk2t-kUWAG2hNGYg0_t-32" value="" style="sketch=0;outlineConnect=0;fontColor=#232F3E;gradientColor=none;fillColor=#8C4FFF;strokeColor=none;dashed=0;verticalLabelPosition=bottom;verticalAlign=top;align=center;html=1;fontSize=12;fontStyle=0;aspect=fixed;pointerEvents=1;shape=mxgraph.aws4.customer_gateway;" vertex="1" parent="uFk2t-kUWAG2hNGYg0_t-2">
          <mxGeometry x="521" y="321" width="78" height="78" as="geometry" />
        </mxCell>
        <mxCell id="uFk2t-kUWAG2hNGYg0_t-33" value="" style="sketch=0;outlineConnect=0;fontColor=#232F3E;gradientColor=none;fillColor=#8C4FFF;strokeColor=none;dashed=0;verticalLabelPosition=bottom;verticalAlign=top;align=center;html=1;fontSize=12;fontStyle=0;aspect=fixed;pointerEvents=1;shape=mxgraph.aws4.customer_gateway;" vertex="1" parent="uFk2t-kUWAG2hNGYg0_t-2">
          <mxGeometry x="521" y="521" width="78" height="78" as="geometry" />
        </mxCell>
        <mxCell id="uFk2t-kUWAG2hNGYg0_t-54" value="&lt;p style=&quot;margin: 0px; font-variant-numeric: normal; font-variant-east-asian: normal; font-variant-alternates: normal; font-size-adjust: none; font-kerning: auto; font-optical-sizing: auto; font-feature-settings: normal; font-variation-settings: normal; font-variant-position: normal; font-weight: 400; font-stretch: normal; font-size: 14px; line-height: normal; font-family: &amp;quot;Andale Mono&amp;quot;; color: rgb(47, 255, 18); background-color: rgba(37, 8, 25, 0.65); text-align: start; text-wrap: wrap;&quot; class=&quot;p1&quot;&gt;&lt;span style=&quot;font-variant-ligatures: no-common-ligatures; font-size: 14px;&quot; class=&quot;s1&quot;&gt;0.0.0.0/0&lt;/span&gt;&lt;/p&gt;" style="text;strokeColor=none;fillColor=none;html=1;fontSize=14;fontStyle=1;verticalAlign=middle;align=center;" vertex="1" parent="uFk2t-kUWAG2hNGYg0_t-2">
          <mxGeometry x="469" y="101" width="90" height="20" as="geometry" />
        </mxCell>
        <mxCell id="uFk2t-kUWAG2hNGYg0_t-55" value="&lt;p style=&quot;margin: 0px; font-variant-numeric: normal; font-variant-east-asian: normal; font-variant-alternates: normal; font-size-adjust: none; font-kerning: auto; font-optical-sizing: auto; font-feature-settings: normal; font-variation-settings: normal; font-variant-position: normal; font-weight: 400; font-stretch: normal; font-size: 14px; line-height: normal; font-family: &amp;quot;Andale Mono&amp;quot;; color: rgb(47, 255, 18); background-color: rgba(37, 8, 25, 0.65); text-align: start; text-wrap: wrap;&quot; class=&quot;p1&quot;&gt;&lt;span style=&quot;font-variant-ligatures: no-common-ligatures; font-size: 14px;&quot; class=&quot;s1&quot;&gt;0.0.0.0/0&lt;/span&gt;&lt;/p&gt;" style="text;strokeColor=none;fillColor=none;html=1;fontSize=14;fontStyle=1;verticalAlign=middle;align=center;" vertex="1" parent="uFk2t-kUWAG2hNGYg0_t-2">
          <mxGeometry x="480" y="260" width="90" height="20" as="geometry" />
        </mxCell>
        <mxCell id="uFk2t-kUWAG2hNGYg0_t-11" value="&lt;p style=&quot;line-height: 100%; font-size: 24px;&quot;&gt;INTERNET&lt;/p&gt;" style="html=1;outlineConnect=0;fillColor=#CCCCCC;strokeColor=#6881B3;gradientColor=none;gradientDirection=north;strokeWidth=2;shape=mxgraph.networks.cloud;fontColor=#0000CC;" vertex="1" parent="1">
          <mxGeometry x="580" y="117" width="200" height="121" as="geometry" />
        </mxCell>
        <mxCell id="uFk2t-kUWAG2hNGYg0_t-39" value="" style="edgeStyle=orthogonalEdgeStyle;rounded=0;orthogonalLoop=1;jettySize=auto;html=1;entryX=0.5;entryY=1;entryDx=0;entryDy=0;entryPerimeter=0;strokeWidth=4;" edge="1" parent="1" source="uFk2t-kUWAG2hNGYg0_t-30" target="uFk2t-kUWAG2hNGYg0_t-11">
          <mxGeometry relative="1" as="geometry">
            <mxPoint x="690" y="233" as="targetPoint" />
          </mxGeometry>
        </mxCell>
      </root>
    </mxGraphModel>
  </diagram>
</mxfile>
